<svg width="596" height="273" viewBox="0 0 596 273" fill="none" xmlns="http://www.w3.org/2000/svg">
<path d="M9.00004 29.7092V196.885" stroke="white"/>
<rect x="3" y="64.1118" width="12" height="116" fill="white"/>
<path d="M29 0V80.187" stroke="white"/>
<rect x="23" y="13.5664" width="12" height="48.615" fill="white"/>
<path d="M49 4.50134V62.4319" stroke="url(#paint0_radial_3_1767)"/>
<rect x="43" y="12.4667" width="12" height="7.20222" fill="url(#paint1_radial_3_1767)"/>
<path d="M69 82.5904V71.572" stroke="url(#paint2_radial_3_1767)"/>
<rect x="63" y="18.9058" width="12" height="61.2188" fill="url(#paint3_radial_3_1767)"/>
<path d="M89 53.1165V95.1399" stroke="white"/>
<rect x="83" y="60.0925" width="12" height="15.3047" fill="white"/>
<path d="M109 47.7146V74.5279" stroke="url(#paint4_radial_3_1767)"/>
<rect x="103" y="61.3926" width="12" height="2.70083" fill="url(#paint5_radial_3_1767)"/>
<path d="M129 60.3186V93.6289" stroke="url(#paint6_radial_3_1767)"/>
<rect x="123" y="63.0193" width="12" height="17.1053" fill="url(#paint7_radial_3_1767)"/>
<path d="M149 129.631V78.3242" stroke="url(#paint8_radial_3_1767)"/>
<rect x="143" y="78.3242" width="12" height="20.7064" fill="url(#paint9_radial_3_1767)"/>
<path d="M169 95.4294V121.678" stroke="url(#paint10_radial_3_1767)"/>
<rect x="163" y="98.1938" width="12" height="11.7036" fill="url(#paint11_radial_3_1767)"/>
<path d="M188 88.2271V121.164" stroke="white"/>
<rect x="182" y="93.1785" width="12" height="17.1053" fill="white"/>
<path d="M208 81.0249V112.471" stroke="url(#paint12_radial_3_1767)"/>
<rect x="202" y="92.6648" width="12" height="19.8061" fill="url(#paint13_radial_3_1767)"/>
<path d="M228 108.033V161.659" stroke="url(#paint14_radial_3_1767)"/>
<rect x="222" y="112.594" width="12" height="40.5125" fill="url(#paint15_radial_3_1767)"/>
<path d="M248 144.945V217.592" stroke="url(#paint16_radial_3_1767)"/>
<rect x="242" y="150.037" width="12" height="47.7147" fill="url(#paint17_radial_3_1767)"/>
<path d="M268 151.247V243.289" stroke="white"/>
<rect x="262" y="178.255" width="12" height="19.8061" fill="white"/>
<path d="M288 152.147V203.106" stroke="white"/>
<rect x="282" y="160.192" width="12" height="11.7036" fill="white"/>
<path d="M308 152.147V181.52" stroke="url(#paint18_radial_3_1767)"/>
<rect x="302" y="160.192" width="12" height="2.70083" fill="url(#paint19_radial_3_1767)"/>
<path d="M328 152.147V174.146" stroke="white"/>
<rect x="322" y="158.391" width="12" height="2.70083" fill="white"/>
<path d="M587 243.291V76.1152" stroke="white"/>
<rect x="593" y="208.888" width="12" height="116" transform="rotate(-180 593 208.888)" fill="white"/>
<path d="M567 273V192.813" stroke="white"/>
<rect x="573" y="259.434" width="12" height="48.615" transform="rotate(-180 573 259.434)" fill="white"/>
<path d="M547 268.499V210.568" stroke="url(#paint20_radial_3_1767)"/>
<rect x="553" y="260.533" width="12" height="7.20222" transform="rotate(-180 553 260.533)" fill="url(#paint21_radial_3_1767)"/>
<path d="M527 190.41V201.428" stroke="url(#paint22_radial_3_1767)"/>
<rect x="533" y="254.094" width="12" height="61.2188" transform="rotate(-180 533 254.094)" fill="url(#paint23_radial_3_1767)"/>
<path d="M507 224.571V198.322" stroke="url(#paint24_radial_3_1767)"/>
<rect x="513" y="221.806" width="12" height="11.7036" transform="rotate(-180 513 221.806)" fill="url(#paint25_radial_3_1767)"/>
<path d="M488 231.773V198.836" stroke="white"/>
<rect x="494" y="226.822" width="12" height="17.1053" transform="rotate(-180 494 226.822)" fill="white"/>
<path d="M468 238.975V207.529" stroke="url(#paint26_radial_3_1767)"/>
<rect x="474" y="227.335" width="12" height="19.8061" transform="rotate(-180 474 227.335)" fill="url(#paint27_radial_3_1767)"/>
<path d="M448 211.967V158.341" stroke="url(#paint28_radial_3_1767)"/>
<rect x="454" y="207.406" width="12" height="40.5125" transform="rotate(-180 454 207.406)" fill="url(#paint29_radial_3_1767)"/>
<path d="M428 175.055V102.408" stroke="url(#paint30_radial_3_1767)"/>
<rect x="434" y="169.963" width="12" height="47.7147" transform="rotate(-180 434 169.963)" fill="url(#paint31_radial_3_1767)"/>
<path d="M408 168.753V76.7107" stroke="white"/>
<rect x="414" y="141.745" width="12" height="19.8061" transform="rotate(-180 414 141.745)" fill="white"/>
<path d="M388 167.853V116.894" stroke="white"/>
<rect x="394" y="159.808" width="12" height="11.7036" transform="rotate(-180 394 159.808)" fill="white"/>
<path d="M368 167.853V138.48" stroke="url(#paint32_radial_3_1767)"/>
<rect x="374" y="159.808" width="12" height="2.70083" transform="rotate(-180 374 159.808)" fill="url(#paint33_radial_3_1767)"/>
<path d="M348 167.853V145.854" stroke="white"/>
<rect x="354" y="161.609" width="12" height="2.70083" transform="rotate(-180 354 161.609)" fill="white"/>
<defs>
<radialGradient id="paint0_radial_3_1767" cx="0" cy="0" r="1" gradientUnits="userSpaceOnUse" gradientTransform="translate(49 33.4666) scale(0.56378 114.537)">
<stop stop-color="#005BCC"/>
<stop offset="0.8" stop-color="#008CFF"/>
</radialGradient>
<radialGradient id="paint1_radial_3_1767" cx="0" cy="0" r="1" gradientUnits="userSpaceOnUse" gradientTransform="translate(49 16.0678) scale(6.20158 14.2398)">
<stop stop-color="#005BCC"/>
<stop offset="0.8" stop-color="#008CFF"/>
</radialGradient>
<radialGradient id="paint2_radial_3_1767" cx="0" cy="0" r="1" gradientUnits="userSpaceOnUse" gradientTransform="translate(69 77.0812) scale(0.56378 21.7849)">
<stop stop-color="#005BCC"/>
<stop offset="0.8" stop-color="#008CFF"/>
</radialGradient>
<radialGradient id="paint3_radial_3_1767" cx="0" cy="0" r="1" gradientUnits="userSpaceOnUse" gradientTransform="translate(69 49.5152) scale(6.20158 121.038)">
<stop stop-color="#005BCC"/>
<stop offset="0.8" stop-color="#008CFF"/>
</radialGradient>
<radialGradient id="paint4_radial_3_1767" cx="0" cy="0" r="1" gradientUnits="userSpaceOnUse" gradientTransform="translate(109 61.1212) scale(0.56378 53.0137)">
<stop stop-color="#005BCC"/>
<stop offset="0.8" stop-color="#008CFF"/>
</radialGradient>
<radialGradient id="paint5_radial_3_1767" cx="0" cy="0" r="1" gradientUnits="userSpaceOnUse" gradientTransform="translate(109 62.743) scale(6.20158 5.33993)">
<stop stop-color="#005BCC"/>
<stop offset="0.8" stop-color="#008CFF"/>
</radialGradient>
<radialGradient id="paint6_radial_3_1767" cx="0" cy="0" r="1" gradientUnits="userSpaceOnUse" gradientTransform="translate(129 76.9737) scale(0.56378 65.8591)">
<stop stop-color="#005BCC"/>
<stop offset="0.8" stop-color="#008CFF"/>
</radialGradient>
<radialGradient id="paint7_radial_3_1767" cx="0" cy="0" r="1" gradientUnits="userSpaceOnUse" gradientTransform="translate(129 71.5719) scale(6.20158 33.8195)">
<stop stop-color="#005BCC"/>
<stop offset="0.8" stop-color="#008CFF"/>
</radialGradient>
<radialGradient id="paint8_radial_3_1767" cx="0" cy="0" r="1" gradientUnits="userSpaceOnUse" gradientTransform="translate(149 103.977) scale(0.56378 101.44)">
<stop stop-color="#005BCC"/>
<stop offset="0.8" stop-color="#008CFF"/>
</radialGradient>
<radialGradient id="paint9_radial_3_1767" cx="0" cy="0" r="1" gradientUnits="userSpaceOnUse" gradientTransform="translate(149 88.6774) scale(6.20158 40.9394)">
<stop stop-color="#005BCC"/>
<stop offset="0.8" stop-color="#008CFF"/>
</radialGradient>
<radialGradient id="paint10_radial_3_1767" cx="0" cy="0" r="1" gradientUnits="userSpaceOnUse" gradientTransform="translate(169 108.554) scale(0.56378 51.8975)">
<stop stop-color="#005BCC"/>
<stop offset="0.8" stop-color="#008CFF"/>
</radialGradient>
<radialGradient id="paint11_radial_3_1767" cx="0" cy="0" r="1" gradientUnits="userSpaceOnUse" gradientTransform="translate(169 104.046) scale(6.20158 23.1397)">
<stop stop-color="#005BCC"/>
<stop offset="0.8" stop-color="#008CFF"/>
</radialGradient>
<radialGradient id="paint12_radial_3_1767" cx="0" cy="0" r="1" gradientUnits="userSpaceOnUse" gradientTransform="translate(208 96.7479) scale(0.56378 62.1733)">
<stop stop-color="#005BCC"/>
<stop offset="0.8" stop-color="#008CFF"/>
</radialGradient>
<radialGradient id="paint13_radial_3_1767" cx="0" cy="0" r="1" gradientUnits="userSpaceOnUse" gradientTransform="translate(208 102.568) scale(6.20158 39.1595)">
<stop stop-color="#005BCC"/>
<stop offset="0.8" stop-color="#008CFF"/>
</radialGradient>
<radialGradient id="paint14_radial_3_1767" cx="0" cy="0" r="1" gradientUnits="userSpaceOnUse" gradientTransform="translate(228 134.846) scale(0.56378 106.025)">
<stop stop-color="#005BCC"/>
<stop offset="0.8" stop-color="#008CFF"/>
</radialGradient>
<radialGradient id="paint15_radial_3_1767" cx="0" cy="0" r="1" gradientUnits="userSpaceOnUse" gradientTransform="translate(228 132.85) scale(6.20158 80.0989)">
<stop stop-color="#005BCC"/>
<stop offset="0.8" stop-color="#008CFF"/>
</radialGradient>
<radialGradient id="paint16_radial_3_1767" cx="0" cy="0" r="1" gradientUnits="userSpaceOnUse" gradientTransform="translate(248 181.268) scale(0.56378 143.634)">
<stop stop-color="#005BCC"/>
<stop offset="0.8" stop-color="#008CFF"/>
</radialGradient>
<radialGradient id="paint17_radial_3_1767" cx="0" cy="0" r="1" gradientUnits="userSpaceOnUse" gradientTransform="translate(248 173.895) scale(6.20158 94.3387)">
<stop stop-color="#005BCC"/>
<stop offset="0.8" stop-color="#008CFF"/>
</radialGradient>
<radialGradient id="paint18_radial_3_1767" cx="0" cy="0" r="1" gradientUnits="userSpaceOnUse" gradientTransform="translate(308 166.833) scale(0.56378 58.075)">
<stop stop-color="#005BCC"/>
<stop offset="0.8" stop-color="#008CFF"/>
</radialGradient>
<radialGradient id="paint19_radial_3_1767" cx="0" cy="0" r="1" gradientUnits="userSpaceOnUse" gradientTransform="translate(308 161.542) scale(6.20158 5.33993)">
<stop stop-color="#005BCC"/>
<stop offset="0.8" stop-color="#008CFF"/>
</radialGradient>
<radialGradient id="paint20_radial_3_1767" cx="0" cy="0" r="1" gradientUnits="userSpaceOnUse" gradientTransform="translate(547 239.533) rotate(180) scale(0.56378 114.537)">
<stop stop-color="#005BCC"/>
<stop offset="0.8" stop-color="#008CFF"/>
</radialGradient>
<radialGradient id="paint21_radial_3_1767" cx="0" cy="0" r="1" gradientUnits="userSpaceOnUse" gradientTransform="translate(559 264.134) scale(6.20158 14.2398)">
<stop stop-color="#005BCC"/>
<stop offset="0.8" stop-color="#008CFF"/>
</radialGradient>
<radialGradient id="paint22_radial_3_1767" cx="0" cy="0" r="1" gradientUnits="userSpaceOnUse" gradientTransform="translate(527 195.919) rotate(180) scale(0.56378 21.7849)">
<stop stop-color="#005BCC"/>
<stop offset="0.8" stop-color="#008CFF"/>
</radialGradient>
<radialGradient id="paint23_radial_3_1767" cx="0" cy="0" r="1" gradientUnits="userSpaceOnUse" gradientTransform="translate(539 284.704) scale(6.20158 121.038)">
<stop stop-color="#005BCC"/>
<stop offset="0.8" stop-color="#008CFF"/>
</radialGradient>
<radialGradient id="paint24_radial_3_1767" cx="0" cy="0" r="1" gradientUnits="userSpaceOnUse" gradientTransform="translate(507 211.446) rotate(180) scale(0.56378 51.8975)">
<stop stop-color="#005BCC"/>
<stop offset="0.8" stop-color="#008CFF"/>
</radialGradient>
<radialGradient id="paint25_radial_3_1767" cx="0" cy="0" r="1" gradientUnits="userSpaceOnUse" gradientTransform="translate(519 227.658) scale(6.20158 23.1397)">
<stop stop-color="#005BCC"/>
<stop offset="0.8" stop-color="#008CFF"/>
</radialGradient>
<radialGradient id="paint26_radial_3_1767" cx="0" cy="0" r="1" gradientUnits="userSpaceOnUse" gradientTransform="translate(468 223.252) rotate(180) scale(0.56378 62.1733)">
<stop stop-color="#005BCC"/>
<stop offset="0.8" stop-color="#008CFF"/>
</radialGradient>
<radialGradient id="paint27_radial_3_1767" cx="0" cy="0" r="1" gradientUnits="userSpaceOnUse" gradientTransform="translate(480 237.238) scale(6.20158 39.1595)">
<stop stop-color="#005BCC"/>
<stop offset="0.8" stop-color="#008CFF"/>
</radialGradient>
<radialGradient id="paint28_radial_3_1767" cx="0" cy="0" r="1" gradientUnits="userSpaceOnUse" gradientTransform="translate(448 185.154) rotate(180) scale(0.56378 106.025)">
<stop stop-color="#005BCC"/>
<stop offset="0.8" stop-color="#008CFF"/>
</radialGradient>
<radialGradient id="paint29_radial_3_1767" cx="0" cy="0" r="1" gradientUnits="userSpaceOnUse" gradientTransform="translate(460 227.663) scale(6.20158 80.0989)">
<stop stop-color="#005BCC"/>
<stop offset="0.8" stop-color="#008CFF"/>
</radialGradient>
<radialGradient id="paint30_radial_3_1767" cx="0" cy="0" r="1" gradientUnits="userSpaceOnUse" gradientTransform="translate(428 138.732) rotate(180) scale(0.56378 143.634)">
<stop stop-color="#005BCC"/>
<stop offset="0.8" stop-color="#008CFF"/>
</radialGradient>
<radialGradient id="paint31_radial_3_1767" cx="0" cy="0" r="1" gradientUnits="userSpaceOnUse" gradientTransform="translate(440 193.82) scale(6.20158 94.3387)">
<stop stop-color="#005BCC"/>
<stop offset="0.8" stop-color="#008CFF"/>
</radialGradient>
<radialGradient id="paint32_radial_3_1767" cx="0" cy="0" r="1" gradientUnits="userSpaceOnUse" gradientTransform="translate(368 153.167) rotate(180) scale(0.56378 58.075)">
<stop stop-color="#005BCC"/>
<stop offset="0.8" stop-color="#008CFF"/>
</radialGradient>
<radialGradient id="paint33_radial_3_1767" cx="0" cy="0" r="1" gradientUnits="userSpaceOnUse" gradientTransform="translate(380 161.159) scale(6.20158 5.33993)">
<stop stop-color="#005BCC"/>
<stop offset="0.8" stop-color="#008CFF"/>
</radialGradient>
</defs>
</svg>
