<svg width="206" height="33" viewBox="0 0 206 33" fill="none" xmlns="http://www.w3.org/2000/svg">
<rect x="35" y="0.205078" width="36" height="32.5899" rx="16.2949" fill="white"/>
<path d="M60.0705 8.20508H62.9611L56.9455 14.1712C54.7669 16.3306 51.2349 16.3306 49.0548 14.1712L43.0369 8.20508H45.9298L50.5001 12.7372C51.166 13.3945 52.0634 13.763 52.9984 13.763C53.9333 13.763 54.8307 13.3945 55.4966 12.7372L60.0705 8.20508Z" fill="url(#paint0_radial_35_7201)"/>
<path d="M45.8926 24.7953H43L49.0547 18.7924C51.2332 16.633 54.7652 16.633 56.9453 18.7924L63 24.7953H60.1094L55.5 20.2264C54.8341 19.569 53.9367 19.2005 53.0018 19.2005C52.0668 19.2005 51.1694 19.569 50.5035 20.2264L45.8926 24.7953Z" fill="url(#paint1_radial_35_7201)"/>
<path d="M84.552 7.46L88.776 13.748L92.976 7.46H96.576L90.672 16.1L96.384 24.5H92.784L88.776 18.452L84.744 24.5H81.12L86.832 16.1L80.928 7.46H84.552ZM98.2916 24.5V7.46H105.828C106.612 7.46 107.332 7.62 107.988 7.94C108.66 8.26 109.236 8.692 109.716 9.236C110.212 9.78 110.588 10.388 110.844 11.06C111.116 11.732 111.252 12.42 111.252 13.124C111.252 13.844 111.124 14.54 110.868 15.212C110.628 15.868 110.276 16.444 109.812 16.94C109.348 17.436 108.804 17.82 108.18 18.092L112.068 24.5H108.42L104.916 18.788H101.604V24.5H98.2916ZM101.604 15.884H105.756C106.172 15.884 106.54 15.764 106.86 15.524C107.18 15.268 107.436 14.932 107.628 14.516C107.82 14.1 107.916 13.636 107.916 13.124C107.916 12.58 107.804 12.108 107.58 11.708C107.356 11.292 107.068 10.964 106.716 10.724C106.38 10.484 106.012 10.364 105.612 10.364H101.604V15.884ZM114.253 24.5V7.46H121.477C122.261 7.46 122.981 7.62 123.637 7.94C124.293 8.26 124.861 8.692 125.341 9.236C125.837 9.78 126.221 10.388 126.493 11.06C126.765 11.732 126.901 12.42 126.901 13.124C126.901 14.084 126.677 14.996 126.229 15.86C125.781 16.724 125.165 17.428 124.381 17.972C123.597 18.516 122.669 18.788 121.597 18.788H117.565V24.5H114.253ZM117.565 15.884H121.405C121.805 15.884 122.165 15.772 122.485 15.548C122.805 15.324 123.061 15.004 123.253 14.588C123.445 14.156 123.541 13.668 123.541 13.124C123.541 12.532 123.429 12.028 123.205 11.612C122.997 11.196 122.717 10.884 122.365 10.676C122.029 10.468 121.661 10.364 121.261 10.364H117.565V15.884Z" fill="white"/>
<path d="M141.038 21.596V24.5H129.206V7.46H140.822V10.364H132.518V14.468H139.694V17.156H132.518V21.596H141.038ZM156.364 10.364H150.916V24.5H147.628V10.364H142.18V7.46H156.364V10.364ZM158.479 24.5V7.46H169.927V10.364H161.791V14.756H168.559V17.444H161.791V24.5H158.479Z" fill="url(#paint2_radial_35_7201)"/>
<defs>
<radialGradient id="paint0_radial_35_7201" cx="0" cy="0" r="1" gradientUnits="userSpaceOnUse" gradientTransform="translate(52.999 11.9979) scale(10.2968 14.9979)">
<stop stop-color="#005BCC"/>
<stop offset="0.8" stop-color="#008CFF"/>
</radialGradient>
<radialGradient id="paint1_radial_35_7201" cx="0" cy="0" r="1" gradientUnits="userSpaceOnUse" gradientTransform="translate(53 20.9841) scale(10.336 15.0706)">
<stop stop-color="#005BCC"/>
<stop offset="0.8" stop-color="#008CFF"/>
</radialGradient>
<radialGradient id="paint2_radial_35_7201" cx="0" cy="0" r="1" gradientUnits="userSpaceOnUse" gradientTransform="translate(126 16.5) scale(46.5119 55.36)">
<stop stop-color="#005BCC"/>
<stop offset="0.8" stop-color="#008CFF"/>
</radialGradient>
</defs>
</svg>
