<svg width="497" height="418" viewBox="0 0 497 418" fill="none" xmlns="http://www.w3.org/2000/svg">
<path fill-rule="evenodd" clip-rule="evenodd" d="M357.473 14.6144C305.23 -21.3991 236.382 11.4365 203.699 87.9546L203.674 88.0115C202.136 91.6148 199.523 94.3908 196.077 96.0406C179.416 104.017 163.312 114.685 148.509 128.013C79.8251 189.856 65.1362 285.514 115.699 341.67C166.262 397.826 262.931 393.216 331.615 331.373C366.853 299.644 387.879 259.014 393.172 219.385C393.384 217.79 393.772 216.279 394.338 214.884C425.083 139.101 408.926 50.0821 357.473 14.6144Z" fill="url(#paint0_radial_23_2613)" fill-opacity="0.06"/>
<path fill-rule="evenodd" clip-rule="evenodd" d="M207.533 115.291C207.533 115.291 203.297 121.724 201.565 129.816C200.825 133.272 199.844 137.639 201.821 142.383C202.298 143.529 204.74 149.6 210.529 151.216C217.78 153.241 224.301 146.622 225.664 145.239C229.9 140.939 231.071 136.068 232.169 131.504C232.724 129.199 234.979 119.824 232.265 109.347C231.686 107.116 230.761 104.363 230.479 100.096C230.251 96.6404 230.087 93.6177 231.616 90.6825C233.063 87.9025 234.491 88.1545 238.523 84.434C240.777 82.3559 244.415 78.9986 246.455 74.0185C247.916 70.4511 246.826 70.2756 248.749 63.9824C250.166 59.3465 250.874 57.0285 252.763 55.38C255.731 52.7903 258.808 53.5363 260.075 51.0788C260.806 49.6606 259.498 49.0068 259.68 45.7369C259.772 44.0965 259.87 42.3152 261.164 40.8665C262.198 39.7086 264.074 38.6732 265.712 39.1381C267.089 39.5283 267.222 40.6714 268.35 41.2758C270.174 42.2515 272.572 40.79 275.99 38.7681C279.511 36.6846 279.515 36.6392 282.196 35.3234C285.815 33.5468 286.982 33.5779 287.995 32.3915C290.263 29.7348 287.41 22.703 283.86 18.1715C277.799 10.4337 267.091 6.64743 257.236 7.37988C243.594 8.39419 235.416 17.7792 233.651 19.9243C227.858 26.9676 226.376 34.7759 225.622 38.7417C223.725 48.7365 226.648 50.8687 223.866 59.8167C222.782 63.3048 220.969 69.138 216.088 74.6195C212.346 78.8224 209.135 80.1979 207.056 85.4077C206.517 86.7594 205.404 89.6397 205.679 93.302C205.855 95.6477 206.676 97.8823 208.319 102.351C209.853 106.528 210.432 107.313 210.329 109.137C210.185 111.692 208.878 113.25 207.533 115.291Z" fill="white"/>
<path d="M262.287 68.9262C262.402 68.3766 262.941 68.0243 263.49 68.1395C264.007 68.2479 264.35 68.731 264.292 69.246L264.276 69.3422L262.549 77.5956L261.837 80.9902C261.767 81.3195 261.54 81.5932 261.229 81.7213C257.999 83.0493 254.416 83.8231 250.344 83.647C247.272 83.5135 244.407 82.8393 241.758 81.7565C241.238 81.5438 240.988 80.9509 241.201 80.4312C241.413 79.9115 242.007 79.6622 242.527 79.8749C244.968 80.873 247.606 81.493 250.432 81.6156C253.89 81.7653 256.969 81.1698 259.763 80.1148L259.96 80.0382L262.287 68.9262Z" fill="white"/>
<path d="M286.455 27.9114C287.012 27.8478 287.516 28.2482 287.58 28.8058C288.899 40.359 287.609 50.4263 284.108 58.5625C281.216 65.2772 276.327 69.8677 270.505 70.9199C269.843 71.0419 269.08 71.0758 268.239 71.0304C266.836 70.9613 265.182 70.6753 263.405 70.218L260.084 69.3392C259.859 69.2782 259.653 69.222 259.452 69.1664L258.92 69.0173C258.185 68.808 257.475 68.5932 256.651 68.3303C256.117 68.1595 255.821 67.5877 255.993 67.0524C256.163 66.5178 256.735 66.223 257.27 66.3938L258.04 66.6364C258.411 66.7509 258.766 66.8572 259.121 66.9602L259.732 67.1344L260.786 67.423L263.545 68.1528C265.344 68.6359 266.998 68.934 268.344 69.0004C269.041 69.0383 269.648 69.0112 270.141 68.9204C275.225 68.001 279.598 63.8943 282.241 57.7589C285.596 49.9608 286.84 40.2499 285.56 29.0362C285.496 28.4786 285.897 27.9751 286.455 27.9114Z" fill="white"/>
<path d="M225.795 143.912C226.348 143.816 226.874 144.187 226.97 144.74C228.378 152.88 229.564 161.145 230.515 169.538C232.75 189.356 233.535 208.755 233.064 227.724L233.041 228.583L233.79 227.958C234.921 227.024 236.079 226.103 237.263 225.198L238.156 224.522C239.85 223.254 241.555 222.047 243.268 220.902C243.735 220.589 244.366 220.715 244.678 221.182C244.99 221.648 244.865 222.279 244.398 222.592C242.716 223.716 241.04 224.902 239.375 226.149C237.021 227.913 234.774 229.737 232.627 231.614C231.958 232.199 230.913 231.704 230.942 230.817C231.583 210.939 230.843 190.585 228.495 169.766C227.549 161.413 226.368 153.187 224.967 145.087C224.871 144.533 225.242 144.008 225.795 143.912Z" fill="white"/>
<path d="M251.841 137.69C252.401 137.653 252.885 138.077 252.923 138.637C254.269 158.893 256.916 179.392 261.046 200.14C262.944 209.679 265.115 219.058 267.542 228.292C267.689 228.851 267.34 229.412 266.789 229.54L266.695 229.557L250.618 231.738C250.132 231.804 249.667 231.512 249.515 231.045C246.827 222.778 244.582 214.17 242.862 205.174C241.298 196.996 240.253 188.951 239.659 181.027C239.617 180.468 240.037 179.98 240.596 179.938C241.157 179.896 241.644 180.316 241.686 180.876C242.274 188.724 243.309 196.692 244.859 204.792C246.482 213.277 248.575 221.416 251.071 229.244L251.188 229.609L265.286 227.696L265.058 226.819C263 218.853 261.132 210.779 259.464 202.588L259.052 200.537C254.905 179.699 252.246 159.114 250.895 138.772C250.857 138.212 251.281 137.728 251.841 137.69Z" fill="white"/>
<path d="M260.057 80.0118C260.546 79.7354 261.166 79.9075 261.442 80.396C263.261 83.6097 265.077 86.444 266.936 89.077C267.758 90.2376 268.515 91.2513 269.294 92.2432C269.479 92.479 269.667 92.7148 269.859 92.9533L270.151 93.3131C270.859 94.1824 276.571 100.825 280.092 105.047L284.779 110.718C288.913 115.749 290.02 117.224 290.636 118.405C291.211 119.508 291.677 120.572 292.052 121.635L292.188 122.034C293.42 125.76 293.588 127.703 293.278 137.023L293.078 142.681C293.044 143.68 293.016 144.624 292.992 145.578L292.958 147.182L292.951 147.72C292.812 158.15 293.082 170.596 294.093 182.595C294.678 189.508 295.551 195.979 296.616 201.976C296.712 202.52 296.356 203.041 295.815 203.151C291.487 204.019 287.091 205.088 282.644 206.369C277.586 207.827 272.701 209.493 267.981 211.34C267.459 211.544 266.869 211.286 266.665 210.764C266.46 210.241 266.718 209.651 267.241 209.447C272.018 207.577 276.962 205.891 282.081 204.416C286.173 203.237 290.223 202.235 294.218 201.402L294.443 201.356L294.281 200.403C293.411 195.22 292.686 189.7 292.164 183.864L292.068 182.766C291.079 171.045 290.796 158.918 290.907 148.624L290.947 146.006L290.985 144.568C291.017 143.448 291.055 142.314 291.1 141.058L291.245 137.003C291.547 127.947 291.389 126.094 290.258 122.673C289.943 121.719 289.545 120.764 289.051 119.772L288.766 119.218C288.175 118.145 286.864 116.448 282.504 111.153L278.297 106.069C275 102.124 269.979 96.2768 268.768 94.8302L268.575 94.5971C268.272 94.2258 267.981 93.8626 267.696 93.4994C266.895 92.4811 266.119 91.4397 265.276 90.2505C263.38 87.564 261.527 84.6728 259.673 81.3975C259.397 80.9089 259.569 80.2883 260.057 80.0118Z" fill="white"/>
<path d="M291.216 202.085C291.744 202.085 292.178 202.488 292.227 203.003L292.232 203.101V312.355L292.229 312.438L292.218 312.521L277.679 399.949C277.587 400.503 277.064 400.877 276.51 400.785C275.989 400.698 275.627 400.23 275.663 399.713L275.674 399.616L290.199 312.273L290.199 203.101C290.199 202.573 290.602 202.139 291.117 202.09L291.216 202.085Z" fill="white"/>
<path d="M253.52 251.222C254.046 251.173 254.516 251.533 254.613 252.042L254.627 252.139L260.456 314.162L260.46 314.287L257.546 413.111C257.529 413.672 257.061 414.113 256.5 414.097C255.972 414.081 255.55 413.665 255.516 413.149L255.514 413.051L258.426 314.287L252.603 252.329C252.554 251.804 252.915 251.333 253.423 251.236L253.52 251.222Z" fill="white"/>
<path fill-rule="evenodd" clip-rule="evenodd" d="M253.615 399.782H283.078L307.214 405.561C310.627 406.377 313.032 409.427 313.032 412.936V416.989L253.615 416.275V399.782Z" fill="white"/>
<path fill-rule="evenodd" clip-rule="evenodd" d="M206.523 367.8L192.322 383.303L231.998 416.779H244.052V413.217L234.894 406.744L226.285 382.848L206.523 367.8Z" fill="white"/>
<path d="M258.085 307.562C258.438 307.125 259.077 307.058 259.515 307.411C259.923 307.742 260.008 308.325 259.727 308.756L259.666 308.84L209.2 371.238C208.847 371.675 208.207 371.742 207.77 371.389C207.361 371.059 207.276 370.475 207.558 370.044L207.619 369.96L258.085 307.562Z" fill="white"/>
<path d="M257.684 350.389C258.106 350.019 258.748 350.061 259.119 350.482C259.466 350.877 259.451 351.467 259.101 351.844L259.027 351.916L224.191 382.532C223.769 382.903 223.127 382.862 222.756 382.439C222.409 382.044 222.424 381.456 222.774 381.078L222.849 381.005L257.684 350.389Z" fill="white"/>
<path d="M264.018 227.951C264.504 227.669 265.126 227.834 265.408 228.32L266.098 229.52C266.576 230.356 267.094 231.271 267.673 232.306L268.374 233.575C273.448 242.811 274.459 245.92 273.671 248.123C272.024 252.732 265.226 255.42 259.175 254.72C257.748 254.556 256.58 254.328 255.209 253.814C253.09 253.02 251.384 251.778 250.307 249.968C249.117 247.971 249.048 245.808 249.968 240.331C250.512 237.057 251.235 233.683 252.212 230.101C252.36 229.559 252.919 229.24 253.46 229.387C254.002 229.535 254.321 230.094 254.173 230.636C253.288 233.878 252.617 236.946 252.099 239.924L251.972 240.666C251.128 245.7 251.184 247.468 252.054 248.928C252.866 250.293 254.202 251.266 255.923 251.91C257.104 252.353 258.131 252.554 259.408 252.7C264.625 253.305 270.49 250.986 271.757 247.439L271.789 247.339C272.249 245.799 271.15 242.75 265.898 233.296L264.886 231.499C264.442 230.715 264.034 230.005 263.65 229.34C263.368 228.855 263.533 228.233 264.018 227.951Z" fill="white"/>
<path d="M237.998 224.722C238.533 224.555 239.103 224.854 239.27 225.39C240.755 230.155 242.6 234.895 244.867 239.61C247.774 245.664 251.141 251.202 254.872 256.279C255.204 256.731 255.108 257.367 254.655 257.699C254.203 258.032 253.567 257.935 253.234 257.483C249.431 252.307 245.998 246.662 243.035 240.491C240.724 235.684 238.844 230.852 237.33 225.995C237.162 225.459 237.462 224.889 237.998 224.722Z" fill="white"/>
<path d="M249.869 243.905C250.345 243.607 250.972 243.752 251.27 244.227C251.567 244.703 251.423 245.33 250.947 245.628C250.186 246.104 249.441 246.579 248.709 247.054L247.982 247.529C232.647 257.528 218.564 269.694 206.615 283.285L205.569 284.485C204.163 286.108 202.79 287.724 201.007 289.852L195.234 296.776C189.168 304.029 185.562 308.121 181.286 312.474C175.405 318.463 169.682 323.285 163.604 327.193L162.467 327.915C150.074 335.587 133.253 338.498 120.076 334.855C119.535 334.706 119.218 334.146 119.367 333.605C119.517 333.064 120.077 332.746 120.618 332.896C133.227 336.382 149.469 333.571 161.383 326.194L161.904 325.865C172.924 318.918 180.642 311.102 194.954 293.94L199.206 288.838C201.281 286.358 202.803 284.568 204.42 282.708C216.415 268.92 230.58 256.562 246.025 246.382L246.868 245.828C247.841 245.189 248.841 244.548 249.869 243.905Z" fill="white"/>
<path d="M123.383 305.582C123.943 305.536 124.434 305.952 124.479 306.512C125.851 323.35 122.124 338.043 112.62 349.464L111.996 350.207C109.819 352.769 107.683 354.992 103.934 358.661L100.4 362.099C90.5885 371.667 86.5238 376.561 83.2383 383.874C78.704 393.981 78.8104 405.711 83.2193 416.602C83.4294 417.122 83.1787 417.715 82.6583 417.925C82.1379 418.136 81.5457 417.885 81.335 417.365C76.7255 405.978 76.6137 393.675 81.3838 383.041L81.6352 382.488C85.0969 374.995 89.4373 369.906 99.7072 359.936L101.392 358.302C106.192 353.63 108.497 351.241 111.058 348.163C120.191 337.188 123.785 323.02 122.453 306.677C122.408 306.117 122.824 305.627 123.383 305.582Z" fill="white"/>
<path d="M155.024 267.743C159.115 265.68 161.417 265.427 162.961 266.167C165.535 267.381 166.877 270.97 166.803 274.543C166.795 275.004 166.761 275.419 166.701 275.762C166.628 276.38 166.491 276.984 166.293 277.597C165.413 280.308 163.659 282.371 160.284 285.217L157.556 287.48L156.96 287.985C152.983 291.399 150.864 294.107 149.757 297.868L149.678 298.145C149.126 300.137 149.33 302.411 150.711 310.803L155.959 342.299L156.238 343.864C158.783 358.321 159.838 368.555 159.166 380.783C158.528 392.285 156.079 404.304 150.827 417.363C150.617 417.883 150.026 418.136 149.505 417.927C148.984 417.717 148.732 417.125 148.941 416.604C154.105 403.764 156.51 391.962 157.136 380.671C157.786 368.851 156.792 358.887 154.368 344.971L153.639 340.793L148.541 310.131C147.259 302.257 147.082 299.981 147.694 297.697L147.719 297.603C148.962 293.122 151.389 290.042 155.942 286.181L157.124 285.197C157.81 284.629 158.666 283.922 158.974 283.662L159.506 283.208C162.259 280.828 163.671 279.09 164.359 276.969C164.518 276.479 164.626 276.005 164.69 275.473C164.739 275.188 164.764 274.872 164.77 274.504C164.83 271.642 163.765 268.794 162.089 268.003C161.78 267.855 161.414 267.788 160.721 267.864C159.58 267.99 158.01 268.514 155.94 269.557C154.509 270.282 153.299 271.018 152.192 271.821L151.373 272.433C150.977 272.737 150.637 273.017 150.09 273.493L148.642 274.77C146.813 276.395 145.581 277.327 143.834 278.283C142.25 279.15 140.97 279.612 139.484 279.909L139.184 279.966C138.888 280.019 138.603 280.065 138.199 280.125L137.484 280.231C135.71 280.498 134.897 280.669 133.466 281.107C128.306 282.687 123.791 285.745 119.929 289.783C118.509 291.267 117.257 292.805 116.173 294.333C115.443 295.361 114.904 296.217 114.481 296.953C112.063 301.137 110.382 306.235 109.772 310.802C109.239 314.788 109.678 317.702 110.511 318.095C111.029 318.34 112.431 317.611 114.268 315.954C114.907 315.378 115.583 314.709 116.295 313.956L116.774 313.442C117.503 312.653 118.179 311.876 119.216 310.658C120.475 309.181 121.606 307.635 122.608 306.05C123.921 303.976 124.955 301.94 125.842 299.831C126.06 299.314 126.656 299.071 127.173 299.288C127.691 299.506 127.934 300.102 127.716 300.619C126.788 302.826 125.704 304.961 124.325 307.137C123.274 308.8 122.086 310.424 120.764 311.976L119.939 312.94C119.12 313.889 118.512 314.569 117.772 315.352C117.026 316.142 116.312 316.847 115.629 317.463L115.256 317.795C112.976 319.778 111.155 320.647 109.644 319.933C105.761 318.102 107.432 305.291 112.563 296.212L112.719 295.938C113.171 295.152 113.745 294.242 114.515 293.156C115.655 291.551 116.968 289.938 118.46 288.378C122.545 284.106 127.346 280.855 132.871 279.164L133.295 279.036C134.525 278.674 135.388 278.496 136.906 278.263L138.337 278.047C138.512 278.02 138.665 277.994 138.82 277.965C140.227 277.71 141.365 277.317 142.858 276.5C144.357 275.679 145.442 274.876 147.01 273.499L148.783 271.936C149.499 271.313 149.881 271.007 150.481 270.559L150.678 270.412C151.958 269.454 153.355 268.587 155.024 267.743Z" fill="white"/>
<path d="M144.095 366.784C144.656 366.749 145.138 367.175 145.173 367.735C145.599 374.507 145.162 381.499 143.559 388.739C141.094 399.849 136.4 409.376 130.32 417.588C129.986 418.039 129.349 418.134 128.899 417.8C128.448 417.466 128.353 416.829 128.687 416.379C134.607 408.381 139.177 399.109 141.575 388.299C143.134 381.257 143.559 374.454 143.145 367.862C143.109 367.302 143.535 366.819 144.095 366.784Z" fill="white"/>
<path d="M126.419 376.349C126.98 376.333 127.448 376.775 127.463 377.337C127.645 383.751 126.756 390.365 124.216 397.2C122.121 402.833 119.161 407.814 115.557 412.202C114.422 413.579 113.255 414.863 112.046 416.079C111.472 416.646 110.897 417.195 110.321 417.729C109.908 418.11 109.265 418.085 108.884 417.672C108.503 417.26 108.528 416.617 108.94 416.237C109.501 415.718 110.059 415.184 110.61 414.64C111.769 413.474 112.894 412.236 113.988 410.91C117.453 406.691 120.297 401.903 122.31 396.491C124.752 389.924 125.606 383.564 125.432 377.394C125.416 376.833 125.858 376.365 126.419 376.349Z" fill="white"/>
<path d="M495.687 415.967C496.248 415.967 496.703 416.421 496.703 416.983C496.703 417.512 496.3 417.945 495.785 417.995L495.687 417.999H1.01635C0.455324 417.999 0 417.544 0 416.983C0 416.455 0.403154 416.02 0.918781 415.972L1.01635 415.967H495.687Z" fill="white"/>
<path fill-rule="evenodd" clip-rule="evenodd" d="M49.6202 191.969L85.6999 164.49C86.0637 164.212 86.5672 164.212 86.931 164.49L123.011 191.969C123.545 192.376 123.545 193.18 123.011 193.586L86.931 221.066C86.5672 221.343 86.0637 221.343 85.6999 221.066L49.6202 193.586C49.0856 193.18 49.0856 192.376 49.6202 191.969ZM120.718 192.777L86.3151 166.575L51.9124 192.777L86.3151 218.979L120.718 192.777Z" fill="white"/>
<path d="M122.395 191.762C122.923 191.762 123.358 192.164 123.407 192.68L123.411 192.778V232.752C123.411 233.034 123.295 233.302 123.092 233.493L123.011 233.561L86.9312 261.04C86.5958 261.296 86.1405 261.315 85.7861 261.099L85.7 261.04L49.6204 233.561C49.3961 233.39 49.2538 233.135 49.2247 232.857L49.2192 232.752V192.778C49.2192 192.216 49.6746 191.762 50.2356 191.762C50.7641 191.762 51.1984 192.164 51.2479 192.68L51.2519 192.778V232.248L86.3153 258.954L121.379 232.248V192.778C121.379 192.25 121.782 191.815 122.297 191.766L122.395 191.762Z" fill="white"/>
<path d="M86.3159 219.24C86.8437 219.24 87.2781 219.643 87.3275 220.159L87.3323 220.257V260.231C87.3323 260.793 86.8769 261.247 86.3159 261.247C85.7874 261.247 85.3531 260.844 85.3036 260.329L85.2996 260.231V220.257C85.2996 219.696 85.7542 219.24 86.3159 219.24Z" fill="white"/>
<path fill-rule="evenodd" clip-rule="evenodd" d="M86.3159 220.257L122.396 192.777V232.752L86.3159 260.231V220.257Z" fill="white"/>
<path fill-rule="evenodd" clip-rule="evenodd" d="M100.46 33.9605L136.54 6.48177C136.904 6.20464 137.408 6.20464 137.772 6.48177L173.851 33.9605C174.385 34.367 174.385 35.1706 173.851 35.5778L137.772 63.0572C137.408 63.3343 136.904 63.3343 136.54 63.0572L100.46 35.5778C99.9261 35.1706 99.9261 34.367 100.46 33.9605ZM171.558 34.7688L137.156 8.56732L102.753 34.7688L137.156 60.9702L171.558 34.7688Z" fill="white"/>
<path d="M173.235 33.7524C173.764 33.7524 174.197 34.1556 174.247 34.6712L174.252 34.7688V74.7438C174.252 75.0257 174.134 75.2933 173.931 75.4844L173.851 75.5528L137.772 103.032C137.435 103.287 136.98 103.307 136.626 103.09L136.54 103.032L100.46 75.5528C100.236 75.3814 100.094 75.1266 100.065 74.8488L100.06 74.7438V34.7688C100.06 34.2078 100.515 33.7524 101.076 33.7524C101.604 33.7524 102.038 34.1556 102.088 34.6712L102.092 34.7688V74.2404L137.156 100.945L172.219 74.2397V34.7688C172.219 34.241 172.622 33.8066 173.138 33.7572L173.235 33.7524Z" fill="white"/>
<path d="M137.156 61.2314C137.684 61.2314 138.118 61.6346 138.167 62.1502L138.172 62.2478V102.223C138.172 102.785 137.717 103.239 137.156 103.239C136.627 103.239 136.193 102.837 136.144 102.321L136.139 102.223V62.2478C136.139 61.6868 136.594 61.2314 137.156 61.2314Z" fill="white"/>
<path fill-rule="evenodd" clip-rule="evenodd" d="M137.156 62.2484L101.076 34.769V74.7441L137.156 102.223V62.2484Z" fill="white"/>
<path fill-rule="evenodd" clip-rule="evenodd" d="M373.048 88.9186L409.128 61.4393C409.491 61.1622 409.996 61.1622 410.359 61.4393L446.439 88.9186C446.973 89.3259 446.973 90.1295 446.439 90.536L410.359 118.015C409.996 118.292 409.491 118.292 409.128 118.015L373.048 90.536C372.514 90.1295 372.514 89.3259 373.048 88.9186ZM444.146 89.727L409.744 63.5248L375.341 89.727L409.744 115.929L444.146 89.727Z" fill="white"/>
<path fill-rule="evenodd" clip-rule="evenodd" d="M373.664 89.7279L409.744 117.207L445.823 89.7279L409.744 62.2485L373.664 89.7279Z" fill="white"/>
<path d="M445.823 88.7114C446.352 88.7114 446.786 89.1139 446.835 89.6295L446.84 89.7278V129.702C446.84 129.984 446.722 130.252 446.519 130.443L446.439 130.51L410.359 157.99C410.023 158.245 409.568 158.265 409.214 158.049L409.128 157.99L373.048 130.51C372.824 130.34 372.682 130.084 372.653 129.806L372.647 129.702V89.7278C372.647 89.1661 373.103 88.7114 373.664 88.7114C374.192 88.7114 374.627 89.1139 374.675 89.6295L374.68 89.7278V129.198L409.744 155.904L444.807 129.198V89.7278C444.807 89.1993 445.21 88.7649 445.726 88.7155L445.823 88.7114Z" fill="white"/>
<path d="M409.744 116.19C410.272 116.19 410.706 116.593 410.755 117.109L410.76 117.206V157.181C410.76 157.742 410.305 158.197 409.744 158.197C409.216 158.197 408.782 157.795 408.732 157.279L408.727 157.181V117.206C408.727 116.645 409.183 116.19 409.744 116.19Z" fill="white"/>
<path d="M327.473 140.53C327.907 140.174 328.548 140.237 328.903 140.671C329.237 141.078 329.202 141.667 328.839 142.032L328.762 142.102L318.663 150.385C316.301 152.323 313.086 152.84 310.241 151.756L310.024 151.669L301.885 148.307L291.965 148.592C291.437 148.608 290.992 148.217 290.928 147.703L290.92 147.606C290.905 147.078 291.296 146.632 291.809 146.568L291.907 146.561L302.043 146.269C302.15 146.266 302.257 146.28 302.36 146.31L302.461 146.346L310.799 149.791C312.937 150.674 315.377 150.347 317.204 148.948L317.374 148.813L327.473 140.53Z" fill="white"/>
<path d="M309.07 129.729C310.583 128.996 312.339 128.966 313.869 129.643L314.06 129.731L321.909 133.545C322.413 133.79 322.624 134.398 322.379 134.903C322.148 135.378 321.596 135.592 321.11 135.411L321.02 135.373L313.171 131.559C312.213 131.093 311.103 131.067 310.128 131.48L309.958 131.557L299.989 136.396C299.884 136.447 299.773 136.479 299.659 136.491L299.545 136.498H292.322C291.76 136.498 291.306 136.043 291.306 135.482C291.306 134.953 291.708 134.52 292.224 134.47L292.322 134.466L299.311 134.465L309.07 129.729Z" fill="white"/>
<path d="M346.452 120.9C346.91 120.574 347.544 120.681 347.869 121.139C348.175 121.569 348.099 122.156 347.707 122.495L347.63 122.556L313.733 146.664C313.276 146.989 312.642 146.882 312.317 146.425C312.01 145.994 312.087 145.406 312.478 145.068L312.556 145.007L346.452 120.9Z" fill="white"/>
<path d="M336.935 62.2188C350.501 54.7385 363.503 54.275 375.9 62.1267C376.374 62.4268 376.515 63.0549 376.215 63.5292C375.915 64.0035 375.287 64.1445 374.813 63.8443C363.089 56.4195 350.873 56.8552 337.916 63.9995C327.365 69.8164 316.867 79.656 305.149 93.6741C304.789 94.1051 304.148 94.1627 303.718 93.8022C303.287 93.4424 303.23 92.8014 303.59 92.3705L304.604 91.1644C316.065 77.6077 326.424 68.0141 336.935 62.2188Z" fill="white"/>
<path d="M216.1 183.664C216.57 183.356 217.2 183.487 217.507 183.956C217.816 184.426 217.685 185.056 217.215 185.363C194.874 200.029 170.304 208.766 147.14 209.184C146.579 209.194 146.115 208.748 146.105 208.186C146.095 207.625 146.542 207.162 147.103 207.152C169.85 206.741 194.059 198.133 216.1 183.664Z" fill="white"/>
<path d="M82.1082 53.2765C82.6048 53.0157 83.2194 53.2061 83.4809 53.7027C83.7425 54.1994 83.5514 54.8139 83.0547 55.0755C52.0134 71.4116 40.5476 112.239 55.2495 146.771C55.469 147.288 55.2291 147.885 54.7122 148.105C54.1959 148.325 53.5989 148.084 53.3794 147.567C38.2846 112.112 50.0735 70.1357 82.1082 53.2765Z" fill="white"/>
<path d="M337.211 229.629C337.739 229.629 338.173 230.032 338.223 230.548L338.227 230.645V310.855C338.227 311.417 337.772 311.872 337.211 311.872C336.682 311.872 336.248 311.469 336.199 310.954L336.195 310.855V230.645C336.195 230.084 336.649 229.629 337.211 229.629Z" fill="white"/>
<path d="M365.513 229.629C366.041 229.629 366.475 230.032 366.525 230.548L366.529 230.645V310.855C366.529 311.417 366.074 311.872 365.513 311.872C364.984 311.872 364.551 311.469 364.501 310.954L364.497 310.855V230.645C364.497 230.084 364.952 229.629 365.513 229.629Z" fill="white"/>
<path d="M393.814 229.629C394.343 229.629 394.777 230.032 394.826 230.548L394.831 230.645V310.855C394.831 311.417 394.376 311.872 393.814 311.872C393.286 311.872 392.852 311.469 392.803 310.954L392.798 310.855V230.645C392.798 230.084 393.253 229.629 393.814 229.629Z" fill="white"/>
<path d="M422.122 229.629C422.651 229.629 423.084 230.032 423.134 230.548L423.138 230.645V310.855C423.138 311.417 422.683 311.872 422.122 311.872C421.594 311.872 421.16 311.469 421.11 310.954L421.106 310.855V230.645C421.106 230.084 421.561 229.629 422.122 229.629Z" fill="white"/>
<path d="M450.423 229.629C450.952 229.629 451.386 230.032 451.435 230.548L451.44 230.645V310.855C451.44 311.417 450.985 311.872 450.423 311.872C449.896 311.872 449.461 311.469 449.412 310.954L449.407 310.855V230.645C449.407 230.084 449.862 229.629 450.423 229.629Z" fill="white"/>
<path d="M478.725 229.629C479.254 229.629 479.688 230.032 479.737 230.548L479.742 230.645V310.855C479.742 311.417 479.286 311.872 478.725 311.872C478.197 311.872 477.763 311.469 477.714 310.954L477.709 310.855V230.645C477.709 230.084 478.164 229.629 478.725 229.629Z" fill="white"/>
<path d="M478.725 229.629C479.286 229.629 479.742 230.084 479.742 230.645C479.742 231.174 479.339 231.608 478.823 231.657L478.725 231.662H337.211C336.65 231.662 336.195 231.207 336.195 230.645C336.195 230.117 336.598 229.683 337.113 229.634L337.211 229.629H478.725Z" fill="white"/>
<path d="M478.725 245.674C479.286 245.674 479.742 246.128 479.742 246.69C479.742 247.219 479.339 247.652 478.823 247.702L478.725 247.707H337.211C336.65 247.707 336.195 247.251 336.195 246.69C336.195 246.162 336.598 245.727 337.113 245.679L337.211 245.674H478.725Z" fill="white"/>
<path d="M478.725 261.712C479.286 261.712 479.742 262.167 479.742 262.728C479.742 263.256 479.339 263.69 478.823 263.74L478.725 263.745H337.211C336.65 263.745 336.195 263.289 336.195 262.728C336.195 262.2 336.598 261.765 337.113 261.717L337.211 261.712H478.725Z" fill="white"/>
<path d="M478.725 277.757C479.286 277.757 479.742 278.212 479.742 278.773C479.742 279.302 479.339 279.736 478.823 279.785L478.725 279.79H337.211C336.65 279.79 336.195 279.335 336.195 278.773C336.195 278.245 336.598 277.811 337.113 277.762L337.211 277.757H478.725Z" fill="white"/>
<path d="M478.725 293.795C479.286 293.795 479.742 294.25 479.742 294.811C479.742 295.34 479.339 295.774 478.823 295.824L478.725 295.828H337.211C336.65 295.828 336.195 295.373 336.195 294.811C336.195 294.283 336.598 293.849 337.113 293.8L337.211 293.795H478.725Z" fill="white"/>
<path d="M478.725 309.84C479.286 309.84 479.742 310.295 479.742 310.856C479.742 311.385 479.339 311.818 478.823 311.868L478.725 311.873H337.211C336.65 311.873 336.195 311.417 336.195 310.856C336.195 310.328 336.598 309.894 337.113 309.845L337.211 309.84H478.725Z" fill="white"/>
<path fill-rule="evenodd" clip-rule="evenodd" d="M365.513 262.728H393.815V246.69H365.513V262.728Z" fill="white"/>
<path fill-rule="evenodd" clip-rule="evenodd" d="M422.122 278.77H450.424V262.732H422.122V278.77Z" fill="white"/>
<path fill-rule="evenodd" clip-rule="evenodd" d="M337.211 310.85H365.513V294.812H337.211V310.85Z" fill="white"/>
<path fill-rule="evenodd" clip-rule="evenodd" d="M336.113 358.645H479.916V327.527H336.113V358.645Z" fill="white"/>
<path fill-rule="evenodd" clip-rule="evenodd" d="M356.384 340.322V338.46C357.245 338.422 357.848 338.364 358.193 338.287C358.742 338.165 359.189 337.922 359.533 337.558C359.769 337.309 359.949 336.976 360.069 336.559C360.14 336.31 360.175 336.124 360.175 336.003H362.459V349.919H359.657V340.322H356.384Z" fill="white"/>
<path fill-rule="evenodd" clip-rule="evenodd" d="M372.31 346.767C372.572 347.615 373.109 348.038 373.922 348.038C374.734 348.038 375.267 347.615 375.519 346.767C375.772 345.919 375.899 344.695 375.899 343.096C375.899 341.419 375.772 340.178 375.519 339.372C375.267 338.565 374.734 338.162 373.922 338.162C373.109 338.162 372.572 338.565 372.31 339.372C372.047 340.178 371.916 341.419 371.916 343.096C371.916 344.695 372.047 345.919 372.31 346.767ZM377.651 337.778C378.364 339.026 378.721 340.799 378.721 343.096C378.721 345.393 378.364 347.162 377.651 348.404C376.937 349.645 375.694 350.266 373.922 350.266C372.15 350.266 370.906 349.645 370.193 348.404C369.479 347.162 369.123 345.393 369.123 343.096C369.123 340.799 369.479 339.026 370.193 337.778C370.906 336.531 372.15 335.907 373.922 335.907C375.694 335.907 376.937 336.531 377.651 337.778Z" fill="white"/>
<path fill-rule="evenodd" clip-rule="evenodd" d="M383.359 340.322V338.46C384.22 338.422 384.823 338.364 385.168 338.287C385.717 338.165 386.164 337.922 386.508 337.558C386.744 337.309 386.923 336.976 387.045 336.559C387.114 336.31 387.15 336.124 387.15 336.003H389.434V349.919H386.631V340.322H383.359Z" fill="white"/>
<path fill-rule="evenodd" clip-rule="evenodd" d="M399.284 346.767C399.547 347.615 400.084 348.038 400.897 348.038C401.709 348.038 402.241 347.615 402.494 346.767C402.747 345.919 402.874 344.695 402.874 343.096C402.874 341.419 402.747 340.178 402.494 339.372C402.241 338.565 401.709 338.162 400.897 338.162C400.084 338.162 399.547 338.565 399.284 339.372C399.021 340.178 398.89 341.419 398.89 343.096C398.89 344.695 399.021 345.919 399.284 346.767ZM404.625 337.778C405.339 339.026 405.696 340.799 405.696 343.096C405.696 345.393 405.339 347.162 404.625 348.404C403.912 349.645 402.668 350.266 400.897 350.266C399.124 350.266 397.881 349.645 397.167 348.404C396.454 347.162 396.098 345.393 396.098 343.096C396.098 340.799 396.454 339.026 397.167 337.778C397.881 336.531 399.124 335.907 400.897 335.907C402.668 335.907 403.912 336.531 404.625 337.778Z" fill="white"/>
<path fill-rule="evenodd" clip-rule="evenodd" d="M410.333 340.322V338.46C411.194 338.422 411.797 338.364 412.142 338.287C412.69 338.165 413.138 337.922 413.482 337.558C413.718 337.309 413.897 336.976 414.018 336.559C414.089 336.31 414.123 336.124 414.123 336.003H416.408V349.919H413.605V340.322H410.333Z" fill="white"/>
<path fill-rule="evenodd" clip-rule="evenodd" d="M426.259 346.767C426.521 347.615 427.058 348.038 427.871 348.038C428.683 348.038 429.216 347.615 429.468 346.767C429.721 345.919 429.848 344.695 429.848 343.096C429.848 341.419 429.721 340.178 429.468 339.372C429.216 338.565 428.683 338.162 427.871 338.162C427.058 338.162 426.521 338.565 426.259 339.372C425.995 340.178 425.864 341.419 425.864 343.096C425.864 344.695 425.995 345.919 426.259 346.767ZM431.599 337.778C432.313 339.026 432.67 340.799 432.67 343.096C432.67 345.393 432.313 347.162 431.599 348.404C430.886 349.645 429.642 350.266 427.871 350.266C426.099 350.266 424.855 349.645 424.142 348.404C423.428 347.162 423.072 345.393 423.072 343.096C423.072 340.799 423.428 339.026 424.142 337.778C424.855 336.531 426.099 335.907 427.871 335.907C429.642 335.907 430.886 336.531 431.599 337.778Z" fill="white"/>
<path fill-rule="evenodd" clip-rule="evenodd" d="M437.307 340.322V338.46C438.168 338.422 438.772 338.364 439.117 338.287C439.665 338.165 440.113 337.922 440.456 337.558C440.693 337.309 440.872 336.976 440.993 336.559C441.063 336.31 441.099 336.124 441.099 336.003H443.383V349.919H440.58V340.322H437.307Z" fill="white"/>
<path fill-rule="evenodd" clip-rule="evenodd" d="M453.233 346.767C453.495 347.615 454.033 348.038 454.846 348.038C455.658 348.038 456.19 347.615 456.443 346.767C456.696 345.919 456.822 344.695 456.822 343.096C456.822 341.419 456.696 340.178 456.443 339.372C456.19 338.565 455.658 338.162 454.846 338.162C454.033 338.162 453.495 338.565 453.233 339.372C452.97 340.178 452.839 341.419 452.839 343.096C452.839 344.695 452.97 345.919 453.233 346.767ZM458.574 337.778C459.287 339.026 459.644 340.799 459.644 343.096C459.644 345.393 459.287 347.162 458.574 348.404C457.86 349.645 456.617 350.266 454.846 350.266C453.073 350.266 451.83 349.645 451.116 348.404C450.403 347.162 450.047 345.393 450.047 343.096C450.047 340.799 450.403 339.026 451.116 337.778C451.83 336.531 453.073 335.907 454.846 335.907C456.617 335.907 457.86 336.531 458.574 337.778Z" fill="white"/>
<path d="M66.0687 328.239C66.4529 327.772 67.1494 327.746 67.5682 328.161L67.6393 328.239L74.3208 336.37C74.6772 336.804 74.6142 337.444 74.1805 337.8C73.774 338.135 73.1859 338.101 72.82 337.737L72.7502 337.661L66.8533 330.485L60.9558 337.661C60.5723 338.128 59.8751 338.154 59.4563 337.739L59.3859 337.661L53.4904 330.485L47.5955 337.661C47.2114 338.128 46.5148 338.154 46.0961 337.739L46.025 337.661L40.1267 330.485L34.2272 337.661C33.8437 338.128 33.1465 338.154 32.7277 337.739L32.6573 337.661L26.759 330.485L20.8575 337.661C20.474 338.128 19.7774 338.154 19.3587 337.739L19.2875 337.661L12.6 329.53C12.2436 329.097 12.3059 328.456 12.7395 328.1C13.1461 327.766 13.7342 327.8 14.1001 328.162L14.1699 328.239L20.0721 335.415L25.9744 328.239C26.3586 327.772 27.0551 327.746 27.4739 328.161L27.5443 328.239L33.4419 335.415L39.3421 328.239C39.7263 327.772 40.4228 327.746 40.8416 328.161L40.912 328.239L46.8096 335.415L52.7058 328.239C53.0893 327.772 53.7865 327.746 54.2052 328.161L54.2763 328.239L60.1705 335.415L66.0687 328.239Z" fill="white"/>
<path d="M12.7395 344.741C13.1461 344.406 13.7342 344.44 14.1001 344.803L14.1699 344.879L20.0721 352.056L25.9744 344.879C26.3586 344.413 27.0551 344.387 27.4739 344.802L27.5443 344.88L33.4426 352.056L39.3421 344.879C39.7263 344.413 40.4228 344.387 40.8416 344.802L40.912 344.88L46.8096 352.055L52.7058 344.88C53.0893 344.413 53.7865 344.387 54.2052 344.802L54.2763 344.88L60.1705 352.055L66.0687 344.88C66.4529 344.413 67.1494 344.387 67.5682 344.802L67.6393 344.88L74.3208 353.011C74.6772 353.445 74.6142 354.085 74.1805 354.441C73.774 354.775 73.1859 354.741 72.82 354.378L72.7502 354.301L66.8533 347.126L60.9558 354.301C60.5723 354.769 59.8751 354.794 59.4563 354.379L59.3859 354.301L53.4904 347.126L47.5955 354.301C47.2114 354.769 46.5148 354.794 46.0961 354.379L46.025 354.301L40.1267 347.126L34.2272 354.302C33.8437 354.769 33.1465 354.794 32.7277 354.379L32.6573 354.301L26.759 347.126L20.8575 354.302C20.474 354.769 19.7774 354.794 19.3587 354.38L19.2875 354.302L12.6 346.171C12.2436 345.737 12.3059 345.097 12.7395 344.741Z" fill="white"/>
<path d="M368.061 395.144C368.588 395.144 369.023 395.547 369.072 396.062L369.077 396.16V416.303C369.077 416.864 368.622 417.32 368.061 417.32C367.532 417.32 367.098 416.916 367.049 416.401L367.044 416.303V396.16C367.044 395.599 367.499 395.144 368.061 395.144Z" fill="white"/>
<path d="M373.926 403.909C374.197 403.418 374.815 403.239 375.307 403.511C375.769 403.766 375.955 404.329 375.749 404.804L375.705 404.892L369.151 416.763L369.06 416.941L368.945 417.145C368.668 417.633 368.048 417.805 367.559 417.528C367.1 417.268 366.921 416.703 367.131 416.23L367.176 416.143L367.268 415.983L367.354 415.814L373.926 403.909Z" fill="white"/>
<path d="M357.924 404.144C358.337 403.817 358.925 403.863 359.283 404.233L359.352 404.312L368.744 416.21L368.853 416.345C369.204 416.782 369.134 417.422 368.697 417.774C368.287 418.104 367.699 418.063 367.338 417.696L367.268 417.618L367.193 417.523L367.147 417.469L357.756 405.571C357.409 405.13 357.484 404.491 357.924 404.144Z" fill="white"/>
<path d="M36.0025 394.776C36.1136 394.225 36.6503 393.87 37.2005 393.981C37.7181 394.087 38.0637 394.568 38.0095 395.083L37.9946 395.179L33.7564 416.06L33.7571 416.304C33.7571 416.832 33.3539 417.266 32.8383 417.315L32.7407 417.32C32.2122 417.32 31.7779 416.917 31.7291 416.401L31.7244 416.304V415.958L31.7291 415.857L31.7447 415.756L36.0025 394.776Z" fill="white"/>
<path d="M40.5992 408.486C41.0281 408.124 41.6691 408.178 42.0316 408.606C42.3718 409.008 42.3453 409.597 41.9876 409.968L41.9117 410.038L33.7355 416.949L33.6251 417.145C33.3642 417.605 32.7998 417.783 32.3268 417.572L32.2394 417.528C31.78 417.268 31.6012 416.703 31.8119 416.23L31.8566 416.142L31.9467 415.986L32.0145 415.85C32.0606 415.758 32.1209 415.674 32.192 415.599L32.2672 415.529L40.5992 408.486Z" fill="white"/>
<path d="M22.6043 404.144C23.0176 403.817 23.6051 403.863 23.9635 404.233L24.0319 404.312L33.4244 416.21L33.5328 416.345C33.8844 416.782 33.8146 417.422 33.3769 417.774C32.967 418.104 32.3795 418.063 32.0177 417.696L31.9486 417.618L31.8734 417.523L31.8273 417.469L22.4363 405.571C22.0887 405.13 22.1639 404.491 22.6043 404.144Z" fill="white"/>
<path d="M469.14 56.0474C469.474 55.5961 470.11 55.5006 470.561 55.8346C470.986 56.149 471.096 56.7311 470.829 57.1749L470.774 57.2562L456.069 77.1393C455.736 77.5906 455.099 77.6855 454.647 77.3521C454.223 77.0377 454.113 76.4557 454.38 76.0119L454.435 75.9306L469.14 56.0474Z" fill="white"/>
<path d="M460.147 95.9805C460.332 95.4858 460.863 95.2216 461.362 95.3571L461.456 95.3876L484.601 104.098C485.126 104.295 485.392 104.881 485.194 105.407C485.008 105.901 484.478 106.166 483.979 106.03L483.885 106L460.739 97.2895C460.214 97.0924 459.949 96.5063 460.147 95.9805Z" fill="white"/>
<path d="M487.796 76.6328C488.335 76.4736 488.9 76.7812 489.059 77.3199C489.209 77.8267 488.944 78.3572 488.464 78.5503L488.372 78.5822L462.409 86.2461C461.87 86.4053 461.305 86.0977 461.147 85.5591C460.997 85.0522 461.26 84.5217 461.741 84.3286L461.833 84.2968L487.796 76.6328Z" fill="white"/>
<path d="M35.1304 196.838C35.6853 196.755 36.203 197.138 36.2863 197.693C36.3642 198.216 36.0302 198.704 35.5274 198.829L35.4312 198.848L10.9738 202.509C10.4189 202.593 9.90122 202.21 9.81856 201.655C9.73996 201.132 10.0747 200.643 10.5768 200.518L10.673 200.499L35.1304 196.838Z" fill="white"/>
<path d="M34.5246 156.255C35.0057 156.037 35.5674 156.226 35.8249 156.675L35.8696 156.762L46.0765 179.287C46.3082 179.799 46.0812 180.401 45.5703 180.633C45.0893 180.85 44.5269 180.663 44.2694 180.213L44.2247 180.127L34.0178 157.601C33.7861 157.09 34.0131 156.487 34.5246 156.255Z" fill="white"/>
<path d="M11.9319 173.382C12.1847 172.918 12.7457 172.73 13.222 172.932L13.3101 172.975L37.0872 185.915C37.5805 186.183 37.7628 186.8 37.4945 187.293C37.2417 187.758 36.68 187.946 36.2044 187.743L36.1156 187.701L12.3385 174.761C11.8459 174.493 11.6636 173.876 11.9319 173.382Z" fill="white"/>
<path fill-rule="evenodd" clip-rule="evenodd" d="M135.909 286.915C135.909 288.003 135.027 288.885 133.939 288.885C132.85 288.885 131.968 288.003 131.968 286.915C131.968 285.827 132.85 284.944 133.939 284.944C135.027 284.944 135.909 285.827 135.909 286.915Z" fill="white"/>
<path fill-rule="evenodd" clip-rule="evenodd" d="M165.787 274.525C165.78 274.911 165.753 275.283 165.692 275.643C164.574 275.853 163.375 275.961 162.121 275.961C156.762 275.961 152.296 273.928 151.287 271.225C152.418 270.378 153.753 269.524 155.481 268.65C160.319 266.211 161.972 266.821 162.528 267.086C164.94 268.223 165.841 271.909 165.787 274.525Z" fill="white"/>
<path fill-rule="evenodd" clip-rule="evenodd" d="M118.061 416.983H111.155C111.214 416.39 111.281 415.797 111.347 415.204C112.555 413.99 113.822 412.611 115.112 411.047C115.987 411.737 116.839 412.693 117.417 414.004C117.884 415.078 118.047 416.109 118.061 416.983Z" fill="white"/>
<path fill-rule="evenodd" clip-rule="evenodd" d="M136.906 416.983H129.999C130.059 416.39 130.125 415.797 130.192 415.204C131.4 413.99 132.667 412.611 133.956 411.047C134.83 411.737 135.683 412.693 136.261 414.004C136.728 415.078 136.891 416.109 136.906 416.983Z" fill="white"/>
<path fill-rule="evenodd" clip-rule="evenodd" d="M156.116 416.983H149.209C150.591 414.346 151.408 412.626 152.483 410.477C153.358 411.166 154.893 412.693 155.471 414.005C155.938 415.079 156.101 416.109 156.116 416.983Z" fill="white"/>
<path fill-rule="evenodd" clip-rule="evenodd" d="M263.055 69.0745C261.835 68.7913 260.551 68.4519 259.216 68.0446C258.249 67.7499 257.327 67.4409 256.449 67.1245C256.548 68.2486 256.96 70.1112 257.766 71.5978C259.103 74.0628 260.853 75.1672 261.799 76.0711C262.426 72.8059 262.429 71.9616 263.055 69.0745Z" fill="white"/>
<path fill-rule="evenodd" clip-rule="evenodd" d="M256.872 72.082C256.093 70.6435 255.57 68.7287 255.437 67.2137C255.372 66.4745 256.095 65.9168 256.794 66.1689C257.688 66.4907 258.592 66.7923 259.512 67.0728C260.778 67.459 262.036 67.795 263.285 68.0844C263.826 68.2104 264.166 68.747 264.049 69.2904C263.801 70.4314 263.648 71.2554 263.471 72.3456L263.189 74.0842C263.125 74.4725 263.072 74.7794 263.017 75.0884L262.796 76.2633C262.645 77.0533 261.678 77.3623 261.096 76.806C261.015 76.7287 260.924 76.6461 260.807 76.5445L259.976 75.8357C259.39 75.3289 258.92 74.877 258.458 74.3525C257.858 73.6716 257.33 72.9276 256.872 72.082ZM258.207 68.7951L257.739 68.642L257.822 68.9598C258.032 69.7241 258.319 70.4857 258.659 71.1131C259.042 71.8198 259.481 72.4391 259.982 73.0082C260.145 73.1932 260.408 73.4527 260.703 73.7319L261.122 74.1208L261.525 71.6545C261.624 71.0589 261.72 70.525 261.834 69.9531L261.858 69.8305L261.269 69.6814C260.749 69.5459 260.227 69.4022 259.705 69.2505L258.919 69.0167C258.681 68.9442 258.444 68.8703 258.207 68.7951Z" fill="white"/>
<defs>
<radialGradient id="paint0_radial_23_2613" cx="0" cy="0" r="1" gradientUnits="userSpaceOnUse" gradientTransform="translate(247.756 190.474) scale(167.58 753.187)">
<stop stop-color="#005BCC"/>
<stop offset="0.8" stop-color="#008CFF"/>
</radialGradient>
</defs>
</svg>
