<svg width="1438" height="397" viewBox="0 0 1438 397" fill="none" xmlns="http://www.w3.org/2000/svg">
<g clip-path="url(#clip0_18_1768)">
<path d="M-1 336.439H43.6034C46.4122 336.439 49.065 335.65 50.799 334.297L77.2003 313.706C80.5884 311.063 86.9889 310.829 90.8674 313.205L151.934 350.627C153.65 351.678 155.978 352.27 158.405 352.27H222.677C224.613 352.27 226.498 351.894 228.062 351.197L254.445 339.439C258.26 337.738 263.561 338.093 266.685 340.259L295.313 360.106C298.566 362.361 304.144 362.64 307.951 360.74L405.32 312.138C409.127 310.238 414.707 310.517 417.958 312.772L444.689 331.303C448.516 333.956 455.357 333.797 458.844 330.972L499.057 298.386C500.277 297.398 501.996 296.687 503.946 296.36L567.308 285.77C570.23 285.283 572.567 283.941 573.551 282.187L601.64 232.112C602.537 230.513 604.568 229.248 607.163 228.669L652.976 218.461C655.138 217.979 656.925 217.015 657.977 215.763L675.17 195.331C678.513 191.359 687.733 191.265 691.29 195.166L736.767 245.056C739.014 247.522 743.909 248.578 748.184 247.519L816.524 230.598C819.111 229.957 821.081 228.628 821.868 226.989L871.441 123.889C872.818 121.023 877.629 119.324 882.373 120.029L920.5 125.693C924.459 126.281 928.575 125.197 930.598 123.033L966.512 84.6178C969.219 81.7237 975.431 80.9098 979.836 82.8725L998.475 91.1794C1003.01 93.2006 1009.42 92.2695 1011.99 89.2168L1013.97 86.8664C1017 83.2611 1025.1 82.7645 1029.24 85.9293L1071.75 118.411C1076.35 121.923 1085.49 120.849 1087.64 116.545L1132.82 25.9362C1134.43 22.7012 1140.33 21.0737 1145.36 22.4746L1201.11 38.0037C1204.59 38.9741 1208.7 38.5141 1211.39 36.8505L1261.94 5.65595C1263.66 4.59613 1266 4 1268.44 4H1342.07C1346.16 4 1349.76 5.66452 1350.87 8.07543L1374.77 59.8209C1376.88 64.3813 1386.71 65.3769 1391.11 61.4749L1438 19.8304" stroke="white" stroke-width="4" stroke-linecap="round"/>
<path d="M495.524 53.4961V281.56" stroke="white" stroke-opacity="0.15" stroke-width="2" stroke-linecap="round"/>
<circle cx="497.55" cy="296.298" r="22.5" fill="url(#paint0_radial_18_1768)" stroke="white" stroke-width="5"/>
</g>
<path d="M440 5C440 2.23858 442.239 0 445 0H548C550.761 0 553 2.23858 553 5V43.5106C553 46.2721 550.761 48.5106 548 48.5106H505.797C504.463 48.5106 503.185 49.0435 502.246 49.9907L495.298 57L484.479 48.5106H445C442.239 48.5106 440 46.2721 440 43.5106V5Z" fill="url(#paint1_radial_18_1768)"/>
<path d="M470.253 31L467.384 26.535L464.781 31H461.779L465.959 24.312L461.722 17.738H464.781L467.65 22.184L470.234 17.738H473.236L469.075 24.407L473.312 31H470.253ZM482.176 31L479.25 25.832H477.996V31H475.336V17.738H480.314C481.34 17.738 482.214 17.9217 482.936 18.289C483.658 18.6437 484.197 19.1313 484.551 19.752C484.919 20.36 485.102 21.044 485.102 21.804C485.102 22.678 484.849 23.4697 484.342 24.179C483.836 24.8757 483.082 25.357 482.081 25.623L485.254 31H482.176ZM477.996 23.837H480.219C480.941 23.837 481.48 23.666 481.834 23.324C482.189 22.9693 482.366 22.4817 482.366 21.861C482.366 21.253 482.189 20.7843 481.834 20.455C481.48 20.113 480.941 19.942 480.219 19.942H477.996V23.837ZM497.179 21.842C497.179 22.5513 497.008 23.2163 496.666 23.837C496.337 24.4577 495.811 24.958 495.089 25.338C494.38 25.718 493.481 25.908 492.391 25.908H490.168V31H487.508V17.738H492.391C493.417 17.738 494.291 17.9153 495.013 18.27C495.735 18.6247 496.274 19.1123 496.628 19.733C496.996 20.3537 497.179 21.0567 497.179 21.842ZM492.277 23.761C493.012 23.761 493.557 23.5963 493.911 23.267C494.266 22.925 494.443 22.45 494.443 21.842C494.443 20.55 493.721 19.904 492.277 19.904H490.168V23.761H492.277ZM506.255 19.885V23.21H510.72V25.319H506.255V28.834H511.29V31H503.595V17.719H511.29V19.885H506.255ZM522.732 17.738V19.885H519.198V31H516.538V19.885H513.004V17.738H522.732ZM532.862 17.738V19.885H527.333V23.286H531.57V25.395H527.333V31H524.673V17.738H532.862Z" fill="white"/>
<defs>
<radialGradient id="paint0_radial_18_1768" cx="0" cy="0" r="1" gradientUnits="userSpaceOnUse" gradientTransform="translate(497.55 296.298) scale(25.8399 98.8571)">
<stop stop-color="#005BCC"/>
<stop offset="0.8" stop-color="#008CFF"/>
</radialGradient>
<radialGradient id="paint1_radial_18_1768" cx="0" cy="0" r="1" gradientUnits="userSpaceOnUse" gradientTransform="translate(496.5 28.5) scale(58.3982 112.697)">
<stop stop-color="#005BCC"/>
<stop offset="0.8" stop-color="#008CFF"/>
</radialGradient>
<clipPath id="clip0_18_1768">
<rect width="1439" height="397" fill="white" transform="translate(-1)"/>
</clipPath>
</defs>
</svg>
